<?xml version="1.0" standalone="no"?><!DOCTYPE svg PUBLIC "-//W3C//DTD SVG 1.1//EN" "http://www.w3.org/Graphics/SVG/1.1/DTD/svg11.dtd"><svg t="1664514457978" class="icon" viewBox="0 0 1024 1024" version="1.1" xmlns="http://www.w3.org/2000/svg" p-id="2582" xmlns:xlink="http://www.w3.org/1999/xlink" width="256" height="256"><path d="M512 448m-426.666667 0a426.666667 426.666667 0 1 0 853.333334 0 426.666667 426.666667 0 1 0-853.333334 0Z" fill="#FFE500" p-id="2583"></path><path d="M512 21.333333C277.333333 21.333333 85.333333 213.333333 85.333333 448s192 426.666667 426.666667 426.666667 426.666667-192 426.666667-426.666667S746.666667 21.333333 512 21.333333z m0 789.333334C296.533333 810.666667 123.733333 635.733333 123.733333 422.4 123.733333 206.933333 296.533333 32 512 32s388.266667 174.933333 388.266667 388.266667C902.4 635.733333 727.466667 810.666667 512 810.666667z" fill="#EBCB00" p-id="2584"></path><path d="M384 106.666667a128 32 0 1 0 256 0 128 32 0 1 0-256 0Z" fill="#FFF48C" p-id="2585"></path><path d="M170.666667 970.666667a341.333333 32 0 1 0 682.666666 0 341.333333 32 0 1 0-682.666666 0Z" fill="#45413C" opacity=".15" p-id="2586" data-spm-anchor-id="a313x.7781069.0.i1" class="selected"></path><path d="M714.666667 554.666667a53.333333 32 0 1 0 106.666666 0 53.333333 32 0 1 0-106.666666 0Z" fill="#FFAA54" p-id="2587"></path><path d="M202.666667 554.666667a53.333333 32 0 1 0 106.666666 0 53.333333 32 0 1 0-106.666666 0Z" fill="#FFAA54" p-id="2588"></path><path d="M288 426.666667m-21.333333 0a21.333333 21.333333 0 1 0 42.666666 0 21.333333 21.333333 0 1 0-42.666666 0Z" fill="#45413C" p-id="2589"></path><path d="M736 426.666667m-21.333333 0a21.333333 21.333333 0 1 0 42.666666 0 21.333333 21.333333 0 1 0-42.666666 0Z" fill="#45413C" p-id="2590"></path><path d="M512 810.666667c119.466667 0 219.733333-85.333333 234.666667-196.266667 0-6.4-2.133333-12.8-6.4-17.066667-4.266667-4.266667-12.8-6.4-19.2-6.4-138.666667 21.333333-277.333333 21.333333-416 0-6.4-2.133333-14.933333 0-19.2 6.4-4.266667 4.266667-8.533333 10.666667-6.4 17.066667C292.266667 725.333333 392.533333 810.666667 512 810.666667z" fill="#FFB0CA" p-id="2591"></path><path d="M512 704c-68.266667 0-130.133333 14.933333-172.8 36.266667 42.666667 42.666667 104.533333 70.4 172.8 70.4s130.133333-27.733333 172.8-70.4c-42.666667-21.333333-104.533333-36.266667-172.8-36.266667z" fill="#FF87AF" p-id="2592"></path></svg>