<?xml version="1.0" standalone="no"?><!DOCTYPE svg PUBLIC "-//W3C//DTD SVG 1.1//EN" "http://www.w3.org/Graphics/SVG/1.1/DTD/svg11.dtd"><svg t="1664514558160" class="icon" viewBox="0 0 1024 1024" version="1.1" xmlns="http://www.w3.org/2000/svg" p-id="3731" xmlns:xlink="http://www.w3.org/1999/xlink" width="256" height="256"><path d="M281.6 940.8a234.666667 32 0 1 0 469.333333 0 234.666667 32 0 1 0-469.333333 0Z" fill="#45413C" opacity=".15" p-id="3732"></path><path d="M516.266667 51.2c-209.066667 0-377.6 168.533333-377.6 377.6 0 266.666667 121.6 217.6 121.6 375.466667 0 29.866667 36.266667 57.6 66.133333 57.6 59.733333 0 70.4-38.4 72.533333-72.533334 2.133333-12.8 12.8-21.333333 23.466667-21.333333 12.8 0 25.6 10.666667 25.6 25.6v4.266667c0 36.266667 29.866667 66.133333 66.133333 66.133333s66.133333-29.866667 66.133334-66.133333v-4.266667c0-12.8 10.666667-23.466667 23.466666-23.466667 12.8 0 23.466667 8.533333 23.466667 21.333334 4.266667 34.133333 14.933333 72.533333 72.533333 72.533333 29.866667 0 66.133333-25.6 66.133334-57.6 0-160 121.6-110.933333 121.6-375.466667 6.4-211.2-162.133333-379.733333-371.2-379.733333z" fill="#E8F4FA" p-id="3733"></path><path d="M533.333333 618.666667c-4.266667-6.4-10.666667-10.666667-17.066666-10.666667s-12.8 4.266667-17.066667 10.666667l-25.6 44.8c-2.133333 6.4-2.133333 12.8 0 19.2 4.266667 6.4 8.533333 8.533333 17.066667 8.533333h49.066666c6.4 0 12.8-4.266667 17.066667-8.533333 4.266667-6.4 4.266667-12.8 0-19.2L533.333333 618.666667z" fill="#525252" p-id="3734"></path><path d="M352 518.4m-89.6 0a89.6 89.6 0 1 0 179.2 0 89.6 89.6 0 1 0-179.2 0Z" fill="#87898C" p-id="3735"></path><path d="M352 467.2c42.666667 0 78.933333 29.866667 87.466667 70.4 2.133333-6.4 2.133333-12.8 2.133333-19.2 0-49.066667-40.533333-89.6-89.6-89.6s-89.6 40.533333-89.6 89.6c0 6.4 0 12.8 2.133333 19.2 8.533333-40.533333 44.8-70.4 87.466667-70.4z" fill="#656769" p-id="3736"></path><path d="M680.533333 518.4m-89.6 0a89.6 89.6 0 1 0 179.2 0 89.6 89.6 0 1 0-179.2 0Z" fill="#87898C" p-id="3737"></path><path d="M680.533333 467.2c42.666667 0 78.933333 29.866667 87.466667 70.4 2.133333-6.4 2.133333-12.8 2.133333-19.2 0-49.066667-40.533333-89.6-89.6-89.6s-89.6 40.533333-89.6 89.6c0 6.4 0 12.8 2.133334 19.2 8.533333-40.533333 44.8-70.4 87.466666-70.4z" fill="#656769" p-id="3738"></path><path d="M403.2 128a113.066667 27.733333 0 1 0 226.133333 0 113.066667 27.733333 0 1 0-226.133333 0Z" fill="#FFFFFF" p-id="3739"></path></svg>