<?xml version="1.0" standalone="no"?><!DOCTYPE svg PUBLIC "-//W3C//DTD SVG 1.1//EN" "http://www.w3.org/Graphics/SVG/1.1/DTD/svg11.dtd"><svg t="1664514579492" class="icon" viewBox="0 0 1024 1024" version="1.1" xmlns="http://www.w3.org/2000/svg" p-id="4053" xmlns:xlink="http://www.w3.org/1999/xlink" width="256" height="256"><path d="M458.666667 454.4m-426.666667 0a426.666667 426.666667 0 1 0 853.333333 0 426.666667 426.666667 0 1 0-853.333333 0Z" fill="#FFE500" p-id="4054"></path><path d="M458.666667 27.733333c-234.666667 0-426.666667 192-426.666667 426.666667s192 426.666667 426.666667 426.666667 426.666667-192 426.666666-426.666667-192-426.666667-426.666666-426.666667z m0 789.333334c-215.466667 0-388.266667-174.933333-388.266667-388.266667C70.4 213.333333 243.2 38.4 458.666667 38.4S849.066667 213.333333 849.066667 428.8c0 213.333333-174.933333 388.266667-390.4 388.266667z" fill="#EBCB00" p-id="4055"></path><path d="M330.666667 113.066667a128 32 0 1 0 256 0 128 32 0 1 0-256 0Z" fill="#FFF48C" p-id="4056"></path><path d="M840.533333 646.4c-38.4 76.8-100.266667 140.8-174.933333 181.333333l-23.466667-55.466666-10.666666-27.733334c-17.066667-38.4-14.933333-83.2 4.266666-125.866666 17.066667-36.266667 46.933333-64 83.2-70.4 38.4-8.533333 76.8 6.4 98.133334 36.266666 6.4 8.533333 12.8 19.2 17.066666 32l6.4 29.866667z" fill="#EBCB00" p-id="4057"></path><path d="M117.333333 964.266667a341.333333 32 0 1 0 682.666667 0 341.333333 32 0 1 0-682.666667 0Z" fill="#45413C" opacity=".15" p-id="4058"></path><path d="M733.866667 849.066667l-72.533334-170.666667c-12.8-29.866667-12.8-68.266667 2.133334-100.266667 12.8-29.866667 38.4-51.2 66.133333-57.6 40.533333-8.533333 78.933333 12.8 91.733333 55.466667l12.8 44.8 42.666667-19.2c40.533333-19.2 83.2-4.266667 104.533333 32 14.933333 25.6 14.933333 59.733333 2.133334 87.466667-14.933333 32-42.666667 57.6-72.533334 68.266666l-177.066666 59.733334z" fill="#FF6242" p-id="4059"></path><path d="M693.333333 601.6c40.533333-8.533333 78.933333 12.8 91.733334 55.466667l12.8 44.8 42.666666-19.2c38.4-17.066667 81.066667-4.266667 102.4 32 8.533333 12.8 10.666667 29.866667 10.666667 46.933333 10.666667-10.666667 21.333333-23.466667 27.733333-38.4 12.8-29.866667 12.8-61.866667-2.133333-87.466667-21.333333-36.266667-64-51.2-102.4-32l-42.666667 19.2-10.666666-46.933333c-12.8-40.533333-51.2-64-91.733334-55.466667-29.866667 6.4-53.333333 27.733333-66.133333 57.6-6.4 14.933333-10.666667 29.866667-10.666667 46.933334 8.533333-10.666667 23.466667-19.2 38.4-23.466667z" fill="#FF866E" p-id="4060"></path><path d="M149.333333 561.066667a53.333333 32 0 1 0 106.666667 0 53.333333 32 0 1 0-106.666667 0Z" fill="#FFAA54" p-id="4061"></path><path d="M224 433.066667m-21.333333 0a21.333333 21.333333 0 1 0 42.666666 0 21.333333 21.333333 0 1 0-42.666666 0Z" fill="#45413C" p-id="4062"></path></svg>