<?xml version="1.0" standalone="no"?><!DOCTYPE svg PUBLIC "-//W3C//DTD SVG 1.1//EN" "http://www.w3.org/Graphics/SVG/1.1/DTD/svg11.dtd"><svg t="1664514602629" class="icon" viewBox="0 0 1024 1024" version="1.1" xmlns="http://www.w3.org/2000/svg" p-id="4546" xmlns:xlink="http://www.w3.org/1999/xlink" width="256" height="256"><path d="M512 454.4m-426.666667 0a426.666667 426.666667 0 1 0 853.333334 0 426.666667 426.666667 0 1 0-853.333334 0Z" fill="#FFE500" p-id="4547"></path><path d="M512 27.733333c-234.666667 0-426.666667 192-426.666667 426.666667s192 426.666667 426.666667 426.666667 426.666667-192 426.666667-426.666667-192-426.666667-426.666667-426.666667z m0 789.333334C296.533333 817.066667 123.733333 642.133333 123.733333 426.666667 123.733333 213.333333 296.533333 38.4 512 38.4S902.4 213.333333 902.4 428.8c0 215.466667-174.933333 388.266667-390.4 388.266667z" fill="#EBCB00" p-id="4548"></path><path d="M384 113.066667a128 32 0 1 0 256 0 128 32 0 1 0-256 0Z" fill="#FFF48C" p-id="4549"></path><path d="M170.666667 970.666667a341.333333 32 0 1 0 682.666666 0 341.333333 32 0 1 0-682.666666 0Z" fill="#45413C" opacity=".15" p-id="4550"></path><path d="M298.666667 454.4m-21.333334 0a21.333333 21.333333 0 1 0 42.666667 0 21.333333 21.333333 0 1 0-42.666667 0Z" fill="#45413C" p-id="4551"></path><path d="M714.666667 454.4m-21.333334 0a21.333333 21.333333 0 1 0 42.666667 0 21.333333 21.333333 0 1 0-42.666667 0Z" fill="#45413C" p-id="4552"></path><path d="M714.666667 561.066667a53.333333 32 0 1 0 106.666666 0 53.333333 32 0 1 0-106.666666 0Z" fill="#FFAA54" p-id="4553"></path><path d="M202.666667 561.066667a53.333333 32 0 1 0 106.666666 0 53.333333 32 0 1 0-106.666666 0Z" fill="#FFAA54" p-id="4554"></path><path d="M808.533333 855.466667c-76.8-34.133333 19.2-119.466667 8.533334-177.066667 87.466667 55.466667 68.266667 211.2-8.533334 177.066667z" fill="#00B8F0" p-id="4555"></path><path d="M814.933333 678.4v4.266667c57.6 66.133333 36.266667 183.466667-32 157.866666 4.266667 6.4 12.8 12.8 23.466667 17.066667 78.933333 32 98.133333-123.733333 8.533333-179.2z" fill="#4ACFFF" p-id="4556"></path><path d="M804.266667 633.6c-57.6-12.8-4.266667-85.333333-21.333334-123.733333 70.4 23.466667 81.066667 134.4 21.333334 123.733333z" fill="#00B8F0" p-id="4557"></path><path d="M785.066667 507.733333v2.133334c49.066667 36.266667 51.2 121.6 2.133333 113.066666 4.266667 4.266667 10.666667 6.4 19.2 8.533334 57.6 12.8 46.933333-98.133333-21.333333-123.733334z" fill="#4ACFFF" p-id="4558"></path><path d="M219.733333 633.6c57.6-12.8 4.266667-85.333333 21.333334-123.733333-70.4 23.466667-81.066667 134.4-21.333334 123.733333z" fill="#00B8F0" p-id="4559"></path><path d="M238.933333 507.733333v2.133334c-49.066667 36.266667-51.2 121.6-2.133333 113.066666-4.266667 4.266667-10.666667 6.4-19.2 8.533334-57.6 12.8-46.933333-98.133333 21.333333-123.733334z" fill="#4ACFFF" p-id="4560"></path></svg>