<?xml version="1.0" standalone="no"?><!DOCTYPE svg PUBLIC "-//W3C//DTD SVG 1.1//EN" "http://www.w3.org/Graphics/SVG/1.1/DTD/svg11.dtd"><svg t="1664514588356" class="icon" viewBox="0 0 1024 1024" version="1.1" xmlns="http://www.w3.org/2000/svg" p-id="4215" xmlns:xlink="http://www.w3.org/1999/xlink" width="256" height="256"><path d="M166.4 957.866667a341.333333 32 0 1 0 682.666667 0 341.333333 32 0 1 0-682.666667 0Z" fill="#45413C" opacity=".15" p-id="4216"></path><path d="M512 460.8m-426.666667 0a426.666667 426.666667 0 1 0 853.333334 0 426.666667 426.666667 0 1 0-853.333334 0Z" fill="#FFE500" p-id="4217"></path><path d="M512 34.133333c-234.666667 0-426.666667 192-426.666667 426.666667s192 426.666667 426.666667 426.666667 426.666667-192 426.666667-426.666667-192-426.666667-426.666667-426.666667z m0 789.333334c-215.466667 0-388.266667-174.933333-388.266667-390.4-2.133333-213.333333 172.8-388.266667 388.266667-388.266667s388.266667 174.933333 388.266667 388.266667c0 215.466667-172.8 390.4-388.266667 390.4z" fill="#EBCB00" p-id="4218"></path><path d="M384 119.466667a128 32 0 1 0 256 0 128 32 0 1 0-256 0Z" fill="#FFF48C" p-id="4219"></path><path d="M714.666667 567.466667a53.333333 32 0 1 0 106.666666 0 53.333333 32 0 1 0-106.666666 0Z" fill="#FFAA54" p-id="4220"></path><path d="M202.666667 567.466667a53.333333 32 0 1 0 106.666666 0 53.333333 32 0 1 0-106.666666 0Z" fill="#FFAA54" p-id="4221"></path><path d="M512 823.466667c119.466667 0 219.733333-85.333333 234.666667-196.266667 0-6.4-2.133333-12.8-6.4-17.066667-4.266667-4.266667-12.8-6.4-19.2-6.4-138.666667 21.333333-277.333333 21.333333-416 0-6.4-2.133333-14.933333 0-19.2 6.4-4.266667 4.266667-8.533333 10.666667-6.4 17.066667 12.8 110.933333 113.066667 196.266667 232.533333 196.266667z" fill="#FFFFFF" p-id="4222"></path><path d="M298.666667 695.466667s83.2 32 213.333333 32 202.666667-21.333333 202.666667-21.333334" fill="#FFFFFF" p-id="4223"></path><path d="M684.8 467.2l-64 34.133333c-14.933333 8.533333-34.133333-4.266667-32-23.466666l12.8-72.533334c2.133333-6.4-2.133333-14.933333-6.4-19.2l-51.2-51.2c-12.8-12.8-6.4-34.133333 12.8-36.266666l72.533333-10.666667c6.4 0 12.8-6.4 17.066667-10.666667l32-66.133333c8.533333-14.933333 29.866667-14.933333 38.4 0L746.666667 277.333333c2.133333 6.4 8.533333 10.666667 17.066666 10.666667l72.533334 10.666667c17.066667 2.133333 23.466667 23.466667 12.8 36.266666l-51.2 51.2c-4.266667 4.266667-6.4 12.8-6.4 19.2l12.8 72.533334c2.133333 17.066667-14.933333 29.866667-32 23.466666l-64-34.133333c-8.533333-4.266667-17.066667-4.266667-23.466667 0zM317.866667 471.466667l-64 34.133333c-14.933333 8.533333-34.133333-4.266667-32-23.466667l12.8-72.533333c2.133333-6.4-2.133333-14.933333-6.4-19.2L177.066667 341.333333c-12.8-12.8-6.4-34.133333 12.8-36.266666l72.533333-10.666667c6.4 0 12.8-6.4 17.066667-10.666667l32-66.133333c8.533333-14.933333 29.866667-14.933333 38.4 0l32 66.133333c2.133333 6.4 8.533333 10.666667 17.066666 10.666667l72.533334 10.666667c17.066667 2.133333 23.466667 23.466667 12.8 36.266666l-51.2 51.2c-4.266667 4.266667-6.4 12.8-6.4 19.2l12.8 72.533334c2.133333 17.066667-14.933333 29.866667-32 23.466666l-64-34.133333c-10.666667-6.4-19.2-6.4-25.6-2.133333z" fill="#EBCB00" p-id="4224"></path><path d="M718.933333 416l-64 34.133333c-14.933333 8.533333-34.133333-4.266667-32-23.466666l12.8-72.533334c2.133333-6.4-2.133333-14.933333-6.4-19.2l-51.2-51.2c-12.8-12.8-6.4-34.133333 12.8-36.266666l72.533334-10.666667c6.4 0 12.8-6.4 17.066666-10.666667l32-66.133333c8.533333-14.933333 29.866667-14.933333 38.4 0l32 66.133333c2.133333 6.4 8.533333 10.666667 17.066667 10.666667l72.533333 10.666667c17.066667 2.133333 23.466667 23.466667 12.8 36.266666l-51.2 51.2c-4.266667 4.266667-6.4 12.8-6.4 19.2l12.8 72.533334c2.133333 17.066667-14.933333 29.866667-32 23.466666l-64-34.133333c-12.8-4.266667-19.2-4.266667-25.6 0z" fill="#FFFACF" p-id="4225"></path><path d="M827.733333 390.4l-66.133333-34.133333c-8.533333-4.266667-19.2-4.266667-27.733333 0l-91.733334 46.933333c-6.4 2.133333-12.8 4.266667-17.066666 4.266667l-2.133334 19.2c-2.133333 17.066667 14.933333 29.866667 32 23.466666l64-34.133333c6.4-4.266667 12.8-4.266667 19.2 0l64 34.133333c14.933333 8.533333 34.133333-4.266667 32-23.466666l-6.4-36.266667z" fill="#FFF48C" p-id="4226"></path><path d="M311.466667 416l64 34.133333c14.933333 8.533333 34.133333-4.266667 32-23.466666l-12.8-72.533334c-2.133333-6.4 2.133333-14.933333 6.4-19.2l51.2-51.2c12.8-12.8 6.4-34.133333-12.8-36.266666l-72.533334-10.666667c-6.4 0-12.8-6.4-17.066666-10.666667L320 160c-8.533333-14.933333-29.866667-14.933333-38.4 0l-32 66.133333c-2.133333 6.4-8.533333 10.666667-17.066667 10.666667l-72.533333 10.666667c-17.066667 2.133333-23.466667 23.466667-12.8 36.266666l51.2 51.2c4.266667 4.266667 6.4 12.8 6.4 19.2L196.266667 426.666667c-2.133333 17.066667 14.933333 29.866667 32 23.466666l64-34.133333c4.266667-4.266667 12.8-4.266667 19.2 0z" fill="#FFFACF" p-id="4227"></path><path d="M200.533333 390.4l66.133334-34.133333c8.533333-4.266667 19.2-4.266667 27.733333 0l91.733333 46.933333c6.4 2.133333 12.8 4.266667 17.066667 4.266667l2.133333 19.2c2.133333 17.066667-14.933333 29.866667-32 23.466666l-64-34.133333c-6.4-4.266667-12.8-4.266667-19.2 0l-64 34.133333c-14.933333 6.4-34.133333-6.4-29.866666-23.466666l4.266666-36.266667z" fill="#FFF48C" p-id="4228"></path></svg>